<?xml version="1.0" encoding="UTF-8"?>
<svg id="Layer_1" data-name="Layer 1" xmlns="http://www.w3.org/2000/svg" viewBox="0 0 299.852 62">
  <defs>
    <style>
      .cls-1 {
        fill: #231f20;
      }

      .cls-1, .cls-2 {
        fill-rule: evenodd;
      }

      .cls-2 {
        fill: #ff414c;
      }
    </style>
  </defs>
  <g id="Symbols">
    <g id="nav-elements-_-czi_logo_nav_dark" data-name="nav-elements-/-czi_logo_nav_dark">
      <g id="Group">
        <path id="Fill-1" class="cls-1" d="m12.97,16.051c-1.446.643-2.892.997-4.916.997C3.493,17.048.222,14.432.222,9.799.222,5.566,3.493,2.262,8.009,2.262c1.223,0,2.536.289,3.47.687l.757-.753h.646l.267,5.43-.824.045c-1.468-3.126-2.736-4.323-4.538-4.323-2.224,0-3.893,2.062-3.893,6.119,0,4.211,2.069,6.384,4.828,6.384.578,0,.934-.067,1.468-.244l2.626-3.347.6.088-.445,3.702Z"/>
        <path id="Fill-3" class="cls-1" d="m21.046,8.27c-.801,0-1.29.199-2.069.621v6.694l1.201.487v.642h-5.539v-.642l1.424-.487V2.839l-1.535-.931v-.577l4.027-1.042.423.243v7.426l.244.044c1.024-.908,2.225-1.64,3.605-1.64,1.868,0,2.847,1.219,2.847,3.036v6.185l1.423.487v.642h-5.539v-.642l1.202-.487v-5.21c0-1.286-.467-2.106-1.713-2.106"/>
        <path id="Fill-5" class="cls-1" d="m33.527,11.794c-2.381.088-3.248.909-3.248,2.017,0,1.019.579,1.574,1.601,1.574.446,0,1.046-.2,1.647-.577v-3.015Zm2.759,2.815c0,.754.334,1.22,1.624,1.242l.044.577c-.645.243-1.624.51-2.491.51-1.024,0-1.602-.422-1.78-1.463l-.267-.044c-1.001.931-1.958,1.485-3.137,1.485-1.601,0-2.714-.864-2.714-2.394,0-1.884,1.958-3.17,5.962-3.458v-1.219c0-1.663-.667-2.217-2.336-2.217-.445,0-.845.089-1.135.2.401.332.623.709.623,1.197,0,.709-.49,1.264-1.335,1.264-.801,0-1.402-.621-1.402-1.352,0-1.53,2.447-2.571,4.783-2.571,2.425,0,3.56.909,3.56,3.081v5.165Z"/>
        <path id="Fill-7" class="cls-1" d="m48.967,15.585l1.402.487v.642h-5.518v-.642l1.202-.487v-5.21c0-1.308-.467-2.106-1.691-2.106-.757,0-1.246.222-2.002.621v6.694l1.179.487v.642h-5.518v-.642l1.424-.487v-6.894l-1.402-.931v-.577l3.804-.887.422.266-.156,1.596.267.045c1.357-1.242,2.515-1.84,3.738-1.84,1.824,0,2.847,1.152,2.847,3.037v6.185Z"/>
        <path id="Fill-9" class="cls-1" d="m12.392,38.507H0l-.089-.554,8.899-12.37-3.404.044c-1.224,0-1.78.399-2.737,1.641l-1.424,1.773-.555-.133.422-4.522h11.636l.089.554-8.832,12.391,4.227-.044c1.157,0,1.713-.466,2.447-1.53l1.647-2.394.512.089-.445,5.054Z"/>
        <path id="Fill-11" class="cls-1" d="m25.429,37.443v.554l-3.827.887-.422-.244.156-1.596-.267-.044c-1.357,1.242-2.448,1.84-3.738,1.84-1.868,0-2.847-1.264-2.847-3.06v-5.364l-1.379-.909v-.532l3.893-.887.401.266v6.429c0,1.375.489,2.128,1.691,2.128.756,0,1.246-.199,2.002-.598v-5.896l-1.402-.909v-.532l3.894-.887.422.266v8.269l1.424.82Z"/>
        <path id="Fill-13" class="cls-1" d="m33.95,32.123c-1.001,0-1.58-.732-1.58-1.729,0-.422.089-.821.245-1.175-.134-.022-.245-.044-.401-.044-1.647.066-3.092,1.485-3.092,4.167,0,2.461,1.513,3.746,3.537,3.746.912,0,1.535-.2,2.581-.598l.222.532c-1.246,1.264-2.648,1.84-4.183,1.84-2.869,0-5.161-2.062-5.161-5.12,0-3.104,2.424-5.586,5.74-5.586,2.202,0,3.582,1.064,3.582,2.372,0,.909-.623,1.597-1.491,1.597"/>
        <polygon id="Fill-15" class="cls-1" points="46.698 37.399 47.766 37.865 47.766 38.507 42.782 38.507 42.782 37.931 43.605 37.51 41.025 34.008 40.246 34.008 40.246 37.377 41.358 37.865 41.358 38.507 35.908 38.507 35.908 37.865 37.332 37.377 37.332 24.63 35.796 23.699 35.796 23.123 39.824 22.081 40.246 22.324 40.246 32.832 41.091 32.832 43.806 29.795 42.582 29.041 42.582 28.487 47.298 28.487 47.298 29.152 45.919 29.685 42.849 32.411 46.698 37.399"/>
        <path id="Fill-17" class="cls-1" d="m54.752,32.389c-.022-2.261-.6-3.326-1.846-3.326-1.223,0-2.091,1.308-2.18,3.525l4.027-.199Zm-4.049.997c.023,2.416,1.068,3.769,3.315,3.769,1.024,0,1.913-.2,3.226-.687l.245.51c-1.38,1.13-3.026,1.884-4.495,1.884-3.181,0-5.206-2.083-5.206-5.165,0-3.192,2.514-5.541,5.295-5.541,3.337,0,4.627,2.416,4.516,5.231h-6.897Z"/>
        <path id="Fill-19" class="cls-1" d="m65.942,31.658c-.868,0-1.402-.643-1.513-1.397-.712.155-1.269.621-1.758,1.263v5.852l1.58.488v.642h-5.917v-.642l1.423-.488v-6.894l-1.402-.931v-.577l3.805-.887.422.266-.245,2.128.267.067c.912-1.507,1.825-2.416,3.138-2.416,1.045,0,1.802.687,1.802,1.751,0,1.02-.69,1.774-1.602,1.774"/>
        <path id="Fill-21" class="cls-1" d="m73.329,30.017c-.556,0-1.068.155-1.535.332v6.429c.556.709,1.179,1.064,2.047,1.064,1.179,0,2.224-1.131,2.224-3.946,0-2.637-1.001-3.879-2.736-3.879m-.067,8.845c-1.29,0-3.047-.288-4.383-.709v-13.523l-1.557-.931v-.577l4.049-1.042.422.243v7.139l.268.044c.912-.82,1.824-1.352,3.092-1.352,2.091,0,3.982,1.928,3.982,5.055,0,2.971-2.224,5.653-5.873,5.653"/>
        <path id="Fill-23" class="cls-1" d="m87.3,32.389c-.023-2.261-.6-3.326-1.847-3.326-1.223,0-2.091,1.308-2.179,3.525l4.027-.199Zm-4.049.997c.023,2.416,1.068,3.769,3.315,3.769,1.024,0,1.913-.2,3.225-.687l.245.51c-1.379,1.13-3.026,1.884-4.494,1.884-3.181,0-5.206-2.083-5.206-5.165,0-3.192,2.514-5.541,5.294-5.541,3.337,0,4.628,2.416,4.517,5.231h-6.897Z"/>
        <path id="Fill-25" class="cls-1" d="m98.491,31.658c-.867,0-1.402-.643-1.513-1.397-.712.155-1.268.621-1.758,1.263v5.852l1.58.488v.642h-5.917v-.642l1.423-.488v-6.894l-1.401-.931v-.577l3.804-.887.422.266-.245,2.128.267.067c.912-1.507,1.825-2.416,3.138-2.416,1.045,0,1.802.687,1.802,1.751,0,1.02-.69,1.774-1.602,1.774"/>
        <path id="Fill-27" class="cls-1" d="m105.12,28.931c-1.001,0-1.713.643-1.713,2.571,0,2.017.69,2.571,1.824,2.571,1.001,0,1.647-.909,1.647-2.66,0-1.641-.623-2.483-1.758-2.483m1.312,9.909l-3.581-.044c-.289.377-.49.864-.49,1.463,0,1.152.957,1.951,3.248,1.951,1.846,0,3.293-.909,3.293-1.973,0-.975-.757-1.375-2.47-1.397m-1.245-3.99c-.757,0-1.223-.067-1.624-.199-.222.288-.422.687-.422.975,0,.555.4.821,1.468.842l2.736.044c2.314.045,3.516.932,3.516,2.594,0,2.172-2.381,4.012-6.029,4.012-3.337,0-4.872-.975-4.872-2.261,0-.82.69-1.574,2.158-2.128l-.023-.222c-.89-.288-1.29-.842-1.29-1.463,0-.732.623-1.529,1.935-2.549v-.133c-1.178-.577-2.002-1.597-2.002-2.86,0-2.061,1.958-3.347,4.494-3.347,1.491,0,2.425.399,3.204.953l1.713-.953h1.269v1.928h-.445l-1.846-.354-.045.177c.268.465.467.953.467,1.662,0,1.884-1.668,3.281-4.36,3.281"/>
        <polygon id="Fill-29" class="cls-1" points="7.675 59.568 7.675 60.299 .089 60.299 .089 59.568 2.225 59.08 2.225 47.398 .089 46.909 .089 46.179 7.675 46.179 7.675 46.909 5.562 47.398 5.562 59.08 7.675 59.568"/>
        <path id="Fill-31" class="cls-1" d="m19.578,59.169l1.402.487v.642h-5.518v-.642l1.202-.487v-5.21c0-1.308-.467-2.106-1.691-2.106-.757,0-1.245.222-2.002.62v6.695l1.179.487v.642h-5.518v-.642l1.424-.487v-6.894l-1.402-.931v-.577l3.804-.887.423.266-.156,1.596.268.045c1.356-1.242,2.514-1.84,3.737-1.84,1.824,0,2.847,1.152,2.847,3.037v6.184Z"/>
        <path id="Fill-33" class="cls-1" d="m24.161,44.183c1.068,0,1.825.776,1.825,1.796,0,.997-.801,1.906-1.913,1.906-1.024,0-1.802-.753-1.802-1.773,0-.997.801-1.928,1.891-1.928Zm-2.87,7.16v-.577l3.938-.887.378.222v9.067l1.38.487v.642h-5.762v-.642l1.468-.487v-6.894l-1.402-.931Z"/>
        <path id="Fill-35" class="cls-1" d="m31.436,60.587c-1.758,0-2.648-.842-2.648-2.638v-6.229h-1.713v-.599l2.158-1.485,1.647-2.505h.823v3.103h3.382v1.486h-3.382v5.186c0,.932.134,1.42.579,1.73.401.266.823.332,1.557.332.356,0,.823-.022,1.29-.067l.023.687c-.824.51-2.403.997-3.715.997"/>
        <path id="Fill-37" class="cls-1" d="m38.332,44.183c1.068,0,1.825.776,1.825,1.796,0,.997-.801,1.906-1.913,1.906-1.024,0-1.802-.753-1.802-1.773,0-.997.801-1.928,1.891-1.928Zm-2.87,7.16v-.577l3.938-.887.378.222v9.067l1.38.487v.642h-5.762v-.642l1.468-.487v-6.894l-1.402-.931Z"/>
        <path id="Fill-39" class="cls-1" d="m47.81,55.378c-2.381.088-3.248.908-3.248,2.017,0,1.019.579,1.574,1.601,1.574.446,0,1.046-.2,1.647-.577v-3.015Zm2.759,2.815c0,.754.334,1.22,1.624,1.242l.044.577c-.645.243-1.624.51-2.491.51-1.024,0-1.602-.422-1.78-1.463l-.267-.044c-1.001.931-1.958,1.485-3.137,1.485-1.601,0-2.714-.864-2.714-2.394,0-1.884,1.958-3.17,5.962-3.458v-1.219c0-1.663-.667-2.217-2.336-2.217-.445,0-.845.089-1.135.2.401.332.623.709.623,1.197,0,.709-.49,1.264-1.335,1.264-.801,0-1.402-.621-1.402-1.352,0-1.53,2.447-2.571,4.783-2.571,2.425,0,3.56.909,3.56,3.081v5.165Z"/>
        <path id="Fill-41" class="cls-1" d="m56.309,60.587c-1.758,0-2.648-.842-2.648-2.638v-6.229h-1.713v-.599l2.158-1.485,1.647-2.505h.823v3.103h3.382v1.486h-3.382v5.186c0,.932.134,1.42.579,1.73.401.266.823.332,1.557.332.356,0,.823-.022,1.29-.067l.023.687c-.824.51-2.403.997-3.715.997"/>
        <path id="Fill-43" class="cls-1" d="m63.205,44.183c1.068,0,1.825.776,1.825,1.796,0,.997-.801,1.906-1.913,1.906-1.024,0-1.802-.753-1.802-1.773,0-.997.801-1.928,1.891-1.928Zm-2.87,7.16v-.577l3.938-.887.378.222v9.067l1.38.487v.642h-5.762v-.642l1.468-.487v-6.894l-1.402-.931Z"/>
        <polygon id="Fill-45" class="cls-1" points="72.705 57.373 72.838 57.373 73.862 54.757 74.929 51.587 73.639 50.9 73.639 50.279 78.044 50.279 78.044 50.945 76.553 51.676 72.727 60.543 71.081 60.543 67.165 51.477 65.808 50.945 65.808 50.279 71.793 50.279 71.793 50.9 70.414 51.432 72.705 57.373"/>
        <path id="Fill-47" class="cls-1" d="m85.075,54.181c-.023-2.261-.6-3.326-1.846-3.326-1.223,0-2.091,1.308-2.18,3.525l4.027-.199Zm-4.049.997c.023,2.416,1.068,3.769,3.315,3.769,1.024,0,1.913-.199,3.226-.687l.244.51c-1.379,1.131-3.026,1.885-4.494,1.885-3.181,0-5.206-2.084-5.206-5.166,0-3.191,2.514-5.541,5.294-5.541,3.337,0,4.628,2.416,4.517,5.231h-6.897Z"/>
        <path id="Fill-49" class="cls-2" d="m99.097,53.522c-.493.342-1.07.556-1.873.573-.966.02-1.692-.617-1.759-1.558-.036-.5.132-.978.474-1.344.342-.367.808-.572,1.311-.576.255-.002.524.05.755.149,0,0-.063.525-.084.762l.795.005.142-1.183-.223-.141c-.418-.256-.899-.391-1.392-.386-.718.006-1.408.308-1.895.83-.494.529-.737,1.218-.685,1.939.045.64.322,1.225.778,1.645.461.427,1.083.656,1.755.65.016,0,.033,0,.05,0,.407-.01.866-.088,1.37-.287l.573-1.109s-.012-.026-.093.031"/>
        <path id="Fill-51" class="cls-2" d="m101.797,56.363l-.096,1.089-.002.012c-.039.412-.26.762-.591.936-.263.139-.551.138-.81-.002-.269-.146-.397-.365-.446-.642-.075-.439.175-.896.516-1.127l5.329-3.455c.04.293.061.591.061.894,0,3.576-2.917,6.484-6.502,6.484s-6.503-2.909-6.503-6.484,2.917-6.484,6.503-6.484c2.681,0,4.987,1.628,5.98,3.943l.65-.421c-1.139-2.521-3.681-4.282-6.631-4.282-4.009,0-7.27,3.25-7.27,7.244s3.261,7.244,7.27,7.244,7.27-3.25,7.27-7.244c0-.461-.044-.912-.128-1.349-.05-.286-.159-.666-.178-.727l-1.514.943-2.004,1.265c-.071-.266-.233-.535-.575-.69-.405-.184-1.062-.042-1.544.231,0,0,1.32-2.544,1.538-2.962.014-.028-.005-.06-.037-.06h-.081s0,0,0,0h-2.387l-.1.822.373-.002h.964l-1.889,3.605c-.037.071.04.146.11.109l1.009-.534c.486-.249,1.297-.759,1.697-.464.058.043.133.157.138.275.002.046-.021.09-.06.116l-2.011,1.354c-.654.465-.909,1.158-.849,1.81.051.549.394,1.022.902,1.298.268.144.556.212.844.205.254-.007.506-.073.743-.198.574-.301.955-.889,1.022-1.571l.162-1.833-.879.65Z"/>
      </g>
    </g>
  </g>
</svg>